<svg xmlns="http://www.w3.org/2000/svg" viewBox="0 0 24 24"><g id="Duotone"><path fill="#fff" d="M3.5 16.5h-2v3h2l3 4h2v-11h-2zM19.5 16.5l-3-4h-2v11h2l3-4h2v-3zM19 5l-7.5-3.5L4 5l1 2.5 6.5-3 6.5 3z"/><path fill="#cce7ff" d="M1.5 18v1.5h2l3 4h2V18zM21.5 18v1.5h-2l-3 4h-2V18zM4.5 6.3L5 7.5l6.5-3 6.5 3 .5-1.2-7-3.3z"/><path fill="none" stroke="#1078ff" stroke-linejoin="round" stroke-miterlimit="10" d="M6.5 12.5v11l-3-4v-3zM4.5 6.3L.5 8l3 4.9v3.6M3.5 16.5h-2v3h2M6.5 12.5h2v11h-2M16.5 12.5v11l3-4v-3zM18.5 6.3l4 1.7-3 4.9v3.6M19.5 16.5h2v3h-2M16.5 12.5h-2v11h2M11.5 4.5l6.5 3L19 5l-7.5-3.5L4 5l1 2.5z"/></g><path id="Frames-24px" fill="none" d="M0 0h24v24H0z"/></svg>